<svg width="24" height="24" viewBox="0 0 24 24" fill="none" xmlns="http://www.w3.org/2000/svg">
<path d="M15.2739 2.35609L21.6439 8.7261C22.5122 9.59439 23 10.772 23 12C23 13.228 22.5122 14.4056 21.6439 15.2739L15.2739 21.6439C14.4056 22.5122 13.228 23 12 23C10.772 23 9.59439 22.5122 8.7261 21.6439L2.35609 15.2739C1.4878 14.4056 1 13.228 1 12C1 10.772 1.4878 9.59439 2.35609 8.7261L8.7261 2.35609C9.59439 1.4878 10.772 1 12 1C13.228 1 14.4056 1.4878 15.2739 2.35609ZM10.1046 16.576C10.7055 16.8249 11.3496 16.953 12 16.953C13.3136 16.953 14.5734 16.4312 15.5023 15.5023C16.4312 14.5734 16.953 13.3136 16.953 12C16.953 10.6864 16.4312 9.42657 15.5023 8.4977C14.5734 7.56883 13.3136 7.04699 12 7.04699C11.3496 7.04699 10.7055 7.17511 10.1046 7.42402C9.50364 7.67293 8.95762 8.03777 8.4977 8.4977C8.03777 8.95762 7.67293 9.50364 7.42402 10.1046C7.17511 10.7055 7.04699 11.3496 7.04699 12C7.04699 12.6504 7.17511 13.2945 7.42402 13.8954C7.67293 14.4964 8.03777 15.0424 8.4977 15.5023C8.95762 15.9622 9.50364 16.3271 10.1046 16.576Z" stroke="#66FCF1" stroke-width="2"/>
</svg>
